HIERARCHY
ROOT Hips
{
	OFFSET 0.00000 0.00000 0.00000
	CHANNELS 6 Xposition Yposition Zposition Zrotation Yrotation Xrotation 
	JOINT LHipJoint
	{
		OFFSET 0 0 0
		CHANNELS 3 Zrotation Yrotation Xrotation
		JOINT LeftUpLeg
		{
			OFFSET 1.41496 -1.84582 0.78394
			CHANNELS 3 Zrotation Yrotation Xrotation
			JOINT LeftLeg
			{
				OFFSET 2.58040 -7.08960 0.00000
				CHANNELS 3 Zrotation Yrotation Xrotation
				JOINT LeftFoot
				{
					OFFSET 2.64719 -7.27309 0.00000
					CHANNELS 3 Zrotation Yrotation Xrotation
					JOINT LeftToeBase
					{
						OFFSET 0.20718 -0.56921 2.20259
						CHANNELS 3 Zrotation Yrotation Xrotation
						End Site
						{
							OFFSET 0.00000 -0.00000 1.14243
						}
					}
				}
			}
		}
	}
	JOINT RHipJoint
	{
		OFFSET 0 0 0
		CHANNELS 3 Zrotation Yrotation Xrotation
		JOINT RightUpLeg
		{
			OFFSET -1.40551 -1.84582 0.78394
			CHANNELS 3 Zrotation Yrotation Xrotation
			JOINT RightLeg
			{
				OFFSET -2.56572 -7.04926 0.00000
				CHANNELS 3 Zrotation Yrotation Xrotation
				JOINT RightFoot
				{
					OFFSET -2.57974 -7.08778 0.00000
					CHANNELS 3 Zrotation Yrotation Xrotation
					JOINT RightToeBase
					{
						OFFSET -0.26704 -0.73369 2.20815
						CHANNELS 3 Zrotation Yrotation Xrotation
						End Site
						{
							OFFSET -0.00000 -0.00000 1.16246
						}
					}
				}
			}
		}
	}
	JOINT LowerBack
	{
		OFFSET 0 0 0
		CHANNELS 3 Zrotation Yrotation Xrotation
		JOINT Spine
		{
			OFFSET -0.04690 2.05196 -0.07017
			CHANNELS 3 Zrotation Yrotation Xrotation
			JOINT Spine1
			{
				OFFSET 0.04085 2.05260 0.00800
				CHANNELS 3 Zrotation Yrotation Xrotation
				JOINT Neck
				{
					OFFSET 0 0 0
					CHANNELS 3 Zrotation Yrotation Xrotation
					JOINT Neck1
					{
						OFFSET -0.03582 1.80995 0.19301
						CHANNELS 3 Zrotation Yrotation Xrotation
						JOINT Head
						{
							OFFSET 0.00952 1.80195 -0.36389
							CHANNELS 3 Zrotation Yrotation Xrotation
							End Site
							{
								OFFSET 0.00392 1.85062 -0.14494
							}
						}
					}
				}
				JOINT LeftShoulder
				{
					OFFSET 0 0 0
					CHANNELS 3 Zrotation Yrotation Xrotation
					JOINT LeftArm
					{
						OFFSET 3.55224 1.39726 -0.13667
						CHANNELS 3 Zrotation Yrotation Xrotation
						JOINT LeftForeArm
						{
							OFFSET 5.14507 -0.00000 -0.00000
							CHANNELS 3 Zrotation Yrotation Xrotation
							JOINT LeftHand
							{
								OFFSET 3.50646 -0.00000 0.00000
								CHANNELS 3 Zrotation Yrotation Xrotation
								JOINT LeftFingerBase
								{
									OFFSET 0 0 0
									CHANNELS 3 Zrotation Yrotation Xrotation
									JOINT LeftHandIndex1
									{
										OFFSET 0.62997 -0.00000 0.00000
										CHANNELS 3 Zrotation Yrotation Xrotation
										End Site
										{
											OFFSET 0.50790 -0.00000 0.00000
										}
									}
								}
								JOINT LThumb
								{
									OFFSET 0 0 0
									CHANNELS 3 Zrotation Yrotation Xrotation
									End Site
									{
										OFFSET 0.51565 -0.00000 0.51565
									}
								}
							}
						}
					}
				}
				JOINT RightShoulder
				{
					OFFSET 0 0 0
					CHANNELS 3 Zrotation Yrotation Xrotation
					JOINT RightArm
					{
						OFFSET -3.06467 1.61290 -0.28813
						CHANNELS 3 Zrotation Yrotation Xrotation
						JOINT RightForeArm
						{
							OFFSET -5.23200 -0.00000 -0.00000
							CHANNELS 3 Zrotation Yrotation Xrotation
							JOINT RightHand
							{
								OFFSET -3.65641 -0.00000 0.00000
								CHANNELS 3 Zrotation Yrotation Xrotation
								JOINT RightFingerBase
								{
									OFFSET 0 0 0
									CHANNELS 3 Zrotation Yrotation Xrotation
									JOINT RightHandIndex1
									{
										OFFSET -0.65681 -0.00000 0.00000
										CHANNELS 3 Zrotation Yrotation Xrotation
										End Site
										{
											OFFSET -0.52953 -0.00000 0.00000
										}
									}
								}
								JOINT RThumb
								{
									OFFSET 0 0 0
									CHANNELS 3 Zrotation Yrotation Xrotation
									End Site
									{
										OFFSET -0.53762 -0.00000 0.53762
									}
								}
							}
						}
					}
				}
			}
		}
	}
}
MOTION
Frames: 5
Frame Time: 0.037037
0.00 0.00 0.00 -196.3650 30.8207 -209.3160 0.0000 0.0000 0.0000 -11.2420 -6.7496 -31.6491 6.5187 14.9129 47.0297 0.2440 1.1441 -9.8194 0.8063 -5.7308 -16.0053 0.0000 0.0000 0.0000 7.6215 6.8772 -28.9270 -16.3683 -19.6808 79.3271 -1.7092 1.7690 -24.2300 -1.4277 7.5554 -21.3717 1.7153 -1.7612 19.0994 3.4256 -1.2266 2.6430 3.0142 -0.4030 -7.8021 5.9660 6.1323 -11.3910 -12.4160 10.3679 17.2120 -3.9428 4.5010 8.1847 0.0000 0.0000 0.0000 -76.5891 26.3743 33.6365 86.1771 -59.9447 -56.6899 -0.0000 0.0000 -5.7225 28.7290 -1.7368 -0.9518 -7.1250 0.0000 -0.0000 1.6624 27.9980 -0.6877 0.0000 0.0000 0.0000 59.1280 -2.0326 21.0549 -122.0637 55.7345 -87.3703 0.0000 0.0000 1.1478 -25.3193 -2.0013 0.9465 7.1250 -0.0000 -0.0000 1.0186 -32.1924 0.3194
0.00 0.00 0.00 -195.1090 30.3125 -208.4060 0.0000 0.0000 0.0000 -11.9510 -4.9157 -30.9064 5.7996 14.2313 44.1721 0.1499 1.3543 -7.9399 0.7199 -5.4220 -15.1163 0.0000 0.0000 0.0000 7.2691 5.7571 -25.6846 -16.5378 -19.7102 79.8302 -2.1580 0.1791 -27.7722 -2.0092 8.8851 -25.4367 1.8664 -1.2850 18.0596 3.6135 -0.6269 2.3784 2.9595 -0.1335 -7.5461 5.2521 5.5572 -11.4029 -11.5612 9.5302 17.3748 -3.6419 4.1220 8.0737 0.0000 -0.0000 0.0000 -76.4802 24.7768 29.7015 86.5015 -59.9537 -56.9706 -0.0000 0.0000 -5.6658 28.6821 -1.1547 -0.6316 -7.1250 0.0000 -0.0000 1.6426 28.6621 -0.6537 0.0000 -0.0000 0.0000 64.6500 -6.0231 24.8746 -105.2588 59.1017 -73.1746 0.0000 0.0000 1.0784 -22.9939 -2.3570 0.9998 7.1250 -0.0000 -0.0000 2.9088 -32.5307 0.8892
0.00 0.00 0.00 -193.1070 29.7325 -207.0670 0.0000 0.0000 0.0000 -12.1969 -4.1802 -29.9617 5.5948 14.0238 43.3329 0.0207 1.0899 -3.3484 1.1152 -6.7088 -18.8555 0.0000 0.0000 0.0000 7.9440 4.9053 -22.1436 -16.5724 -19.7160 79.9326 -2.4538 -2.3174 -30.5132 -2.6281 10.0671 -29.1944 2.3072 -1.0513 16.9255 3.8884 -0.2767 2.1315 2.9015 0.0175 -7.2076 4.6289 5.0570 -11.6730 -10.5475 8.7434 17.6782 -3.2901 3.7681 8.0719 -0.0000 -0.0000 0.0000 -75.5141 23.4344 25.6832 87.7043 -59.9801 -58.0120 -0.0000 0.0000 -4.4749 28.1088 -0.6123 -0.3271 -7.1250 0.0000 -0.0000 1.2074 29.2847 -0.4626 -0.0000 -0.0000 0.0000 70.2359 -9.5457 25.2491 -84.0217 59.8645 -54.8250 0.0000 0.0000 0.5163 -21.4943 -2.2045 0.8678 7.1250 -0.0000 -0.0000 4.1101 -32.3308 1.2777
0.00 0.00 0.00 -189.5050 27.2129 -204.6520 0.0000 0.0000 0.0000 -11.9836 -6.8101 -29.7180 6.3837 14.7901 46.5028 0.0594 -1.3733 5.3275 0.9652 -6.2552 -17.5268 0.0000 0.0000 0.0000 9.1370 3.2622 -17.5930 -16.9957 -19.7822 81.1853 -2.2558 -6.1038 -31.0600 -3.6289 11.6495 -34.5031 2.1640 -1.0122 16.0749 4.4224 -0.2341 1.6984 3.5403 0.0498 -7.2057 3.7001 4.2656 -12.8754 -9.2483 7.5155 18.0563 -2.8272 3.1696 8.2233 0.0000 0.0000 0.0000 -73.0230 20.1385 18.9492 87.4966 -59.9763 -57.8322 -0.0000 0.0000 -2.9256 26.8187 0.5857 0.2961 -7.1250 0.0000 -0.0000 0.2001 30.6360 -0.0702 0.0000 0.0000 0.0000 78.8723 -13.9248 18.8523 -53.2240 54.2158 -28.7697 0.0000 0.0000 1.8595 -22.0660 -2.3061 0.9345 7.1250 -0.0000 -0.0000 3.6552 -32.4535 1.1249
0.00 0.00 0.00 -184.7590 20.0456 -200.6340 0.0000 0.0000 0.0000 -13.1961 -8.9234 -30.4077 8.4429 16.4356 54.1429 -0.2641 -9.4652 0.5717 0.1600 -2.5772 -7.1038 0.0000 0.0000 0.0000 9.7807 3.0891 -15.0961 -18.6130 -19.9538 85.9417 -0.4757 -5.8472 -16.4784 -4.4139 12.6918 -38.2253 -0.4010 -1.6343 16.2874 4.7311 -1.4601 1.5521 5.6284 -0.4531 -7.3416 2.3316 3.5334 -14.9608 -7.3577 6.0732 16.6368 -2.1133 2.4718 7.9183 0.0000 -0.0000 0.0000 -69.4001 14.1654 5.0122 72.6754 -58.8350 -45.0551 -0.0000 0.0000 -5.5673 32.7744 7.0099 4.4927 -7.1250 0.0000 -0.0000 5.1585 38.2529 -0.8598 0.0000 -0.0000 0.0000 91.5129 -14.9436 -6.6323 -22.5496 33.5926 -6.8874 0.0000 -0.0000 -4.0497 -27.1203 -9.7325 4.9485 7.1250 -0.0000 -0.0000 -0.1207 -40.8872 -0.0122
